<svg xmlns="http://www.w3.org/2000/svg" width="1440" height="900" viewBox="0 0 1440 900">
<rect width="1440" height="900" fill="#F8F6F1"/>
<rect x="0" y="0" width="1440" height="900" fill="#F8F6F1"/><g><rect x="0" y="0" width="1440" height="70" fill="#FFFDF8"/><line x1="0" y1="69" x2="1440" y2="69" stroke="#E3DED4" stroke-width="1"/><g><rect x="28" y="18" width="36" height="36" fill="#B43B32" rx="10" ry="10"/><text x="46" y="46" font-family="Georgia" font-size="28" font-weight="700" fill="#fff" text-anchor="middle" letter-spacing="0" opacity="1">h</text><text x="76" y="40" font-family="Georgia" font-size="28" font-weight="700" fill="#24362F" text-anchor="start" letter-spacing="0" opacity="1">hola</text><text x="78" y="54" font-family="Inter" font-size="8" font-weight="700" fill="#24362F" text-anchor="start" letter-spacing="2" opacity="1">VIETNAMESE</text></g><text x="170" y="42" font-family="Inter" font-size="12" font-weight="500" fill="#24362F" text-anchor="start" letter-spacing="0" opacity="1">Home</text><text x="242" y="42" font-family="Inter" font-size="12" font-weight="500" fill="#24362F" text-anchor="start" letter-spacing="0" opacity="1">Learn</text><text x="310" y="42" font-family="Inter" font-size="12" font-weight="500" fill="#24362F" text-anchor="start" letter-spacing="0" opacity="1">Explore Vietnam</text><text x="440" y="42" font-family="Inter" font-size="12" font-weight="500" fill="#B43B32" text-anchor="start" letter-spacing="0" opacity="1">Vocabulary</text><rect x="438" y="66" width="92" height="3" fill="#B43B32" rx="2" ry="2"/><text x="546" y="42" font-family="Inter" font-size="12" font-weight="500" fill="#24362F" text-anchor="start" letter-spacing="0" opacity="1">Culture</text><text x="624" y="42" font-family="Inter" font-size="12" font-weight="500" fill="#24362F" text-anchor="start" letter-spacing="0" opacity="1">Blog</text><text x="686" y="42" font-family="Inter" font-size="12" font-weight="500" fill="#24362F" text-anchor="start" letter-spacing="0" opacity="1">AI Tutor ✣</text><text x="782" y="42" font-family="Inter" font-size="12" font-weight="500" fill="#24362F" text-anchor="start" letter-spacing="0" opacity="1">My Learning</text><text x="1160" y="41" font-family="Inter" font-size="14" font-weight="400" fill="#B43B32" text-anchor="start" letter-spacing="0" opacity="1">🔥</text><text x="1182" y="41" font-family="Inter" font-size="12" font-weight="700" fill="#24362F" text-anchor="start" letter-spacing="0" opacity="1">7</text><text x="1223" y="41" font-family="Inter" font-size="12" font-weight="700" fill="#24362F" text-anchor="start" letter-spacing="0" opacity="1">1,250 XP</text><text x="1312" y="41" font-family="Inter" font-size="15" font-weight="400" fill="#24362F" text-anchor="start" letter-spacing="0" opacity="1">♧</text><circle cx="1372" cy="35" r="16" fill="#E7D8B8"/><text x="1372" y="40" font-family="Inter" font-size="12" font-weight="700" fill="#24362F" text-anchor="middle" letter-spacing="0" opacity="1">A</text><text x="1402" y="41" font-family="Inter" font-size="12" font-weight="400" fill="#7F817A" text-anchor="start" letter-spacing="0" opacity="1">⌄</text></g><g><circle cx="1290" cy="740" r="150" fill="none" stroke="#B43B32" stroke-width="1.5" opacity="0.035"/><circle cx="1290" cy="740" r="126.0" fill="none" stroke="#B43B32" stroke-width="1.5" opacity="0.035"/><circle cx="1290" cy="740" r="102.00000000000001" fill="none" stroke="#B43B32" stroke-width="1.5" opacity="0.035"/><circle cx="1290" cy="740" r="78.0" fill="none" stroke="#B43B32" stroke-width="1.5" opacity="0.035"/><line x1="1398.0" y1="740.0" x2="1417.5" y2="740.0" stroke="#B43B32" stroke-width="2" opacity="0.04025"/><line x1="1394.3199892392195" y1="767.9524568710723" x2="1413.1555428518561" y2="772.9994282505714" stroke="#B43B32" stroke-width="2" opacity="0.04025"/><line x1="1383.5307436087194" y1="794.0" x2="1400.418238982516" y2="803.75" stroke="#B43B32" stroke-width="2" opacity="0.04025"/><line x1="1366.367532368147" y1="816.3675323681471" x2="1380.1561146012848" y2="830.1561146012848" stroke="#B43B32" stroke-width="2" opacity="0.04025"/><line x1="1344.0" y1="833.5307436087194" x2="1353.75" y2="850.418238982516" stroke="#B43B32" stroke-width="2" opacity="0.04025"/><line x1="1317.9524568710722" y1="844.3199892392194" x2="1322.9994282505713" y2="863.1555428518562" stroke="#B43B32" stroke-width="2" opacity="0.04025"/><line x1="1290.0" y1="848.0" x2="1290.0" y2="867.5" stroke="#B43B32" stroke-width="2" opacity="0.04025"/><line x1="1262.0475431289278" y1="844.3199892392194" x2="1257.0005717494287" y2="863.1555428518562" stroke="#B43B32" stroke-width="2" opacity="0.04025"/><line x1="1236.0" y1="833.5307436087194" x2="1226.25" y2="850.418238982516" stroke="#B43B32" stroke-width="2" opacity="0.04025"/><line x1="1213.632467631853" y1="816.3675323681472" x2="1199.8438853987152" y2="830.1561146012848" stroke="#B43B32" stroke-width="2" opacity="0.04025"/><line x1="1196.4692563912806" y1="794.0" x2="1179.581761017484" y2="803.75" stroke="#B43B32" stroke-width="2" opacity="0.04025"/><line x1="1185.6800107607805" y1="767.9524568710723" x2="1166.8444571481439" y2="772.9994282505714" stroke="#B43B32" stroke-width="2" opacity="0.04025"/><line x1="1182.0" y1="740.0" x2="1162.5" y2="740.0" stroke="#B43B32" stroke-width="2" opacity="0.04025"/><line x1="1185.6800107607805" y1="712.0475431289277" x2="1166.8444571481439" y2="707.0005717494286" stroke="#B43B32" stroke-width="2" opacity="0.04025"/><line x1="1196.4692563912806" y1="686.0" x2="1179.581761017484" y2="676.25" stroke="#B43B32" stroke-width="2" opacity="0.04025"/><line x1="1213.6324676318527" y1="663.6324676318529" x2="1199.8438853987152" y2="649.8438853987152" stroke="#B43B32" stroke-width="2" opacity="0.04025"/><line x1="1236.0" y1="646.4692563912806" x2="1226.25" y2="629.5817610174842" stroke="#B43B32" stroke-width="2" opacity="0.04025"/><line x1="1262.0475431289278" y1="635.6800107607806" x2="1257.0005717494287" y2="616.8444571481438" stroke="#B43B32" stroke-width="2" opacity="0.04025"/><line x1="1290.0" y1="632.0" x2="1290.0" y2="612.5" stroke="#B43B32" stroke-width="2" opacity="0.04025"/><line x1="1317.9524568710722" y1="635.6800107607806" x2="1322.9994282505713" y2="616.8444571481438" stroke="#B43B32" stroke-width="2" opacity="0.04025"/><line x1="1344.0" y1="646.4692563912806" x2="1353.75" y2="629.581761017484" stroke="#B43B32" stroke-width="2" opacity="0.04025"/><line x1="1366.367532368147" y1="663.6324676318528" x2="1380.1561146012848" y2="649.8438853987152" stroke="#B43B32" stroke-width="2" opacity="0.04025"/><line x1="1383.5307436087194" y1="686.0" x2="1400.418238982516" y2="676.25" stroke="#B43B32" stroke-width="2" opacity="0.04025"/><line x1="1394.3199892392195" y1="712.0475431289277" x2="1413.1555428518561" y2="707.0005717494284" stroke="#B43B32" stroke-width="2" opacity="0.04025"/><polygon points="1290.0,689.0 1296.2116570824605,716.8177801690624 1315.5,695.8327044069936 1306.970562748477,723.0294372515228 1334.1672955930064,714.5 1313.1822198309376,733.7883429175395 1341.0,740.0 1313.1822198309376,746.2116570824605 1334.1672955930064,765.5 1306.970562748477,756.9705627484772 1315.5,784.1672955930064 1296.2116570824605,763.1822198309376 1290.0,791.0 1283.7883429175395,763.1822198309376 1264.5,784.1672955930064 1273.029437251523,756.9705627484772 1245.8327044069936,765.5 1266.8177801690624,746.2116570824605 1239.0,740.0 1266.8177801690624,733.7883429175395 1245.8327044069936,714.5 1273.029437251523,723.0294372515228 1264.5,695.8327044069937 1283.7883429175395,716.8177801690624" fill="#B43B32" opacity="0.04025"/><circle cx="1359.0" cy="740.0" r="3" fill="#B43B32" opacity="0.035"/><circle cx="1349.7557528611262" cy="774.5" r="3" fill="#B43B32" opacity="0.035"/><circle cx="1324.5" cy="799.7557528611262" r="3" fill="#B43B32" opacity="0.035"/><circle cx="1290.0" cy="809.0" r="3" fill="#B43B32" opacity="0.035"/><circle cx="1255.5" cy="799.7557528611262" r="3" fill="#B43B32" opacity="0.035"/><circle cx="1230.2442471388738" cy="774.5" r="3" fill="#B43B32" opacity="0.035"/><circle cx="1221.0" cy="740.0" r="3" fill="#B43B32" opacity="0.035"/><circle cx="1230.2442471388738" cy="705.5" r="3" fill="#B43B32" opacity="0.035"/><circle cx="1255.5" cy="680.2442471388738" r="3" fill="#B43B32" opacity="0.035"/><circle cx="1290.0" cy="671.0" r="3" fill="#B43B32" opacity="0.035"/><circle cx="1324.5" cy="680.2442471388738" r="3" fill="#B43B32" opacity="0.035"/><circle cx="1349.7557528611262" cy="705.5" r="3" fill="#B43B32" opacity="0.035"/></g><text x="74" y="120" font-family="Inter" font-size="10" font-weight="700" fill="#71866D" text-anchor="start" letter-spacing="2.4" opacity="1">REVIEW LITTLE BY LITTLE</text><text x="74" y="168" font-family="Inter" font-size="34" font-weight="700" fill="#24362F" text-anchor="start" letter-spacing="0" opacity="1">Vocabulary review</text><text x="74" y="204" font-family="Inter" font-size="13" font-weight="400" fill="#7F817A" text-anchor="start" letter-spacing="0" opacity="1">12 words are waiting for you today.</text><text x="720" y="235" font-family="Inter" font-size="11" font-weight="600" fill="#7F817A" text-anchor="middle" letter-spacing="0" opacity="1">1 / 12</text><g><rect x="380" y="258" width="680" height="5" fill="#E3DED4" rx="2.5" ry="2.5"/><rect x="380" y="258" width="54.4" height="5" fill="#8FA586" rx="2.5" ry="2.5"/></g><rect x="400" y="310" width="640" height="390" fill="#FFFDF8" rx="20" ry="20" stroke="#E3DED4" stroke-width="1"/><text x="720" y="370" font-family="Georgia" font-size="48" font-weight="500" fill="#24362F" text-anchor="middle" letter-spacing="0" opacity="1">chén</text><text x="720" y="410" font-family="Inter" font-size="20" font-weight="600" fill="#71866D" text-anchor="middle" letter-spacing="0" opacity="1">♪</text><text x="720" y="470" font-family="Inter" font-size="15" font-weight="500" fill="#7F817A" text-anchor="middle" letter-spacing="0" opacity="1">Do you remember this word?</text><g><rect x="590" y="548" width="260" height="44" fill="#B43B32" rx="9" ry="9"/><text x="720.0" y="576" font-family="Inter" font-size="12" font-weight="600" fill="#fff" text-anchor="middle" letter-spacing="0" opacity="1">Show answer</text></g><text x="720" y="748" font-family="Inter" font-size="12" font-weight="500" fill="#7F817A" text-anchor="middle" letter-spacing="0" opacity="1">Again      Hard      Good      Easy</text>
</svg>