<svg xmlns="http://www.w3.org/2000/svg" width="1440" height="1080" viewBox="0 0 1440 1080">
<rect width="1440" height="1080" fill="#F8F6F1"/>
<rect x="0" y="0" width="1440" height="1080" fill="#F8F6F1"/><g><rect x="0" y="0" width="1440" height="70" fill="#FFFDF8"/><line x1="0" y1="69" x2="1440" y2="69" stroke="#E3DED4" stroke-width="1"/><g><rect x="28" y="18" width="36" height="36" fill="#B43B32" rx="10" ry="10"/><text x="46" y="46" font-family="Georgia" font-size="28" font-weight="700" fill="#fff" text-anchor="middle" letter-spacing="0" opacity="1">h</text><text x="76" y="40" font-family="Georgia" font-size="28" font-weight="700" fill="#24362F" text-anchor="start" letter-spacing="0" opacity="1">hola</text><text x="78" y="54" font-family="Inter" font-size="8" font-weight="700" fill="#24362F" text-anchor="start" letter-spacing="2" opacity="1">VIETNAMESE</text></g><text x="170" y="42" font-family="Inter" font-size="12" font-weight="500" fill="#24362F" text-anchor="start" letter-spacing="0" opacity="1">Home</text><text x="242" y="42" font-family="Inter" font-size="12" font-weight="500" fill="#24362F" text-anchor="start" letter-spacing="0" opacity="1">Learn</text><text x="310" y="42" font-family="Inter" font-size="12" font-weight="500" fill="#24362F" text-anchor="start" letter-spacing="0" opacity="1">Explore Vietnam</text><text x="440" y="42" font-family="Inter" font-size="12" font-weight="500" fill="#24362F" text-anchor="start" letter-spacing="0" opacity="1">Vocabulary</text><text x="546" y="42" font-family="Inter" font-size="12" font-weight="500" fill="#24362F" text-anchor="start" letter-spacing="0" opacity="1">Culture</text><text x="624" y="42" font-family="Inter" font-size="12" font-weight="500" fill="#24362F" text-anchor="start" letter-spacing="0" opacity="1">Blog</text><text x="686" y="42" font-family="Inter" font-size="12" font-weight="500" fill="#24362F" text-anchor="start" letter-spacing="0" opacity="1">AI Tutor ✣</text><text x="782" y="42" font-family="Inter" font-size="12" font-weight="500" fill="#24362F" text-anchor="start" letter-spacing="0" opacity="1">My Learning</text><text x="1160" y="41" font-family="Inter" font-size="14" font-weight="400" fill="#B43B32" text-anchor="start" letter-spacing="0" opacity="1">🔥</text><text x="1182" y="41" font-family="Inter" font-size="12" font-weight="700" fill="#24362F" text-anchor="start" letter-spacing="0" opacity="1">7</text><text x="1223" y="41" font-family="Inter" font-size="12" font-weight="700" fill="#24362F" text-anchor="start" letter-spacing="0" opacity="1">1,250 XP</text><text x="1312" y="41" font-family="Inter" font-size="15" font-weight="400" fill="#24362F" text-anchor="start" letter-spacing="0" opacity="1">♧</text><circle cx="1372" cy="35" r="16" fill="#E7D8B8"/><text x="1372" y="40" font-family="Inter" font-size="12" font-weight="700" fill="#24362F" text-anchor="middle" letter-spacing="0" opacity="1">A</text><text x="1402" y="41" font-family="Inter" font-size="12" font-weight="400" fill="#7F817A" text-anchor="start" letter-spacing="0" opacity="1">⌄</text></g><g><circle cx="1290" cy="920" r="150" fill="none" stroke="#B43B32" stroke-width="1.5" opacity="0.035"/><circle cx="1290" cy="920" r="126.0" fill="none" stroke="#B43B32" stroke-width="1.5" opacity="0.035"/><circle cx="1290" cy="920" r="102.00000000000001" fill="none" stroke="#B43B32" stroke-width="1.5" opacity="0.035"/><circle cx="1290" cy="920" r="78.0" fill="none" stroke="#B43B32" stroke-width="1.5" opacity="0.035"/><line x1="1398.0" y1="920.0" x2="1417.5" y2="920.0" stroke="#B43B32" stroke-width="2" opacity="0.04025"/><line x1="1394.3199892392195" y1="947.9524568710723" x2="1413.1555428518561" y2="952.9994282505714" stroke="#B43B32" stroke-width="2" opacity="0.04025"/><line x1="1383.5307436087194" y1="974.0" x2="1400.418238982516" y2="983.75" stroke="#B43B32" stroke-width="2" opacity="0.04025"/><line x1="1366.367532368147" y1="996.3675323681471" x2="1380.1561146012848" y2="1010.1561146012848" stroke="#B43B32" stroke-width="2" opacity="0.04025"/><line x1="1344.0" y1="1013.5307436087194" x2="1353.75" y2="1030.418238982516" stroke="#B43B32" stroke-width="2" opacity="0.04025"/><line x1="1317.9524568710722" y1="1024.3199892392195" x2="1322.9994282505713" y2="1043.1555428518561" stroke="#B43B32" stroke-width="2" opacity="0.04025"/><line x1="1290.0" y1="1028.0" x2="1290.0" y2="1047.5" stroke="#B43B32" stroke-width="2" opacity="0.04025"/><line x1="1262.0475431289278" y1="1024.3199892392195" x2="1257.0005717494287" y2="1043.1555428518561" stroke="#B43B32" stroke-width="2" opacity="0.04025"/><line x1="1236.0" y1="1013.5307436087194" x2="1226.25" y2="1030.418238982516" stroke="#B43B32" stroke-width="2" opacity="0.04025"/><line x1="1213.632467631853" y1="996.3675323681472" x2="1199.8438853987152" y2="1010.1561146012848" stroke="#B43B32" stroke-width="2" opacity="0.04025"/><line x1="1196.4692563912806" y1="974.0" x2="1179.581761017484" y2="983.75" stroke="#B43B32" stroke-width="2" opacity="0.04025"/><line x1="1185.6800107607805" y1="947.9524568710723" x2="1166.8444571481439" y2="952.9994282505714" stroke="#B43B32" stroke-width="2" opacity="0.04025"/><line x1="1182.0" y1="920.0" x2="1162.5" y2="920.0" stroke="#B43B32" stroke-width="2" opacity="0.04025"/><line x1="1185.6800107607805" y1="892.0475431289277" x2="1166.8444571481439" y2="887.0005717494286" stroke="#B43B32" stroke-width="2" opacity="0.04025"/><line x1="1196.4692563912806" y1="866.0" x2="1179.581761017484" y2="856.25" stroke="#B43B32" stroke-width="2" opacity="0.04025"/><line x1="1213.6324676318527" y1="843.6324676318529" x2="1199.8438853987152" y2="829.8438853987152" stroke="#B43B32" stroke-width="2" opacity="0.04025"/><line x1="1236.0" y1="826.4692563912806" x2="1226.25" y2="809.5817610174842" stroke="#B43B32" stroke-width="2" opacity="0.04025"/><line x1="1262.0475431289278" y1="815.6800107607806" x2="1257.0005717494287" y2="796.8444571481438" stroke="#B43B32" stroke-width="2" opacity="0.04025"/><line x1="1290.0" y1="812.0" x2="1290.0" y2="792.5" stroke="#B43B32" stroke-width="2" opacity="0.04025"/><line x1="1317.9524568710722" y1="815.6800107607806" x2="1322.9994282505713" y2="796.8444571481438" stroke="#B43B32" stroke-width="2" opacity="0.04025"/><line x1="1344.0" y1="826.4692563912806" x2="1353.75" y2="809.581761017484" stroke="#B43B32" stroke-width="2" opacity="0.04025"/><line x1="1366.367532368147" y1="843.6324676318528" x2="1380.1561146012848" y2="829.8438853987152" stroke="#B43B32" stroke-width="2" opacity="0.04025"/><line x1="1383.5307436087194" y1="866.0" x2="1400.418238982516" y2="856.25" stroke="#B43B32" stroke-width="2" opacity="0.04025"/><line x1="1394.3199892392195" y1="892.0475431289277" x2="1413.1555428518561" y2="887.0005717494284" stroke="#B43B32" stroke-width="2" opacity="0.04025"/><polygon points="1290.0,869.0 1296.2116570824605,896.8177801690624 1315.5,875.8327044069936 1306.970562748477,903.0294372515228 1334.1672955930064,894.5 1313.1822198309376,913.7883429175395 1341.0,920.0 1313.1822198309376,926.2116570824605 1334.1672955930064,945.5 1306.970562748477,936.9705627484772 1315.5,964.1672955930064 1296.2116570824605,943.1822198309376 1290.0,971.0 1283.7883429175395,943.1822198309376 1264.5,964.1672955930064 1273.029437251523,936.9705627484772 1245.8327044069936,945.5 1266.8177801690624,926.2116570824605 1239.0,920.0 1266.8177801690624,913.7883429175395 1245.8327044069936,894.5 1273.029437251523,903.0294372515228 1264.5,875.8327044069937 1283.7883429175395,896.8177801690624" fill="#B43B32" opacity="0.04025"/><circle cx="1359.0" cy="920.0" r="3" fill="#B43B32" opacity="0.035"/><circle cx="1349.7557528611262" cy="954.5" r="3" fill="#B43B32" opacity="0.035"/><circle cx="1324.5" cy="979.7557528611262" r="3" fill="#B43B32" opacity="0.035"/><circle cx="1290.0" cy="989.0" r="3" fill="#B43B32" opacity="0.035"/><circle cx="1255.5" cy="979.7557528611262" r="3" fill="#B43B32" opacity="0.035"/><circle cx="1230.2442471388738" cy="954.5" r="3" fill="#B43B32" opacity="0.035"/><circle cx="1221.0" cy="920.0" r="3" fill="#B43B32" opacity="0.035"/><circle cx="1230.2442471388738" cy="885.5" r="3" fill="#B43B32" opacity="0.035"/><circle cx="1255.5" cy="860.2442471388738" r="3" fill="#B43B32" opacity="0.035"/><circle cx="1290.0" cy="851.0" r="3" fill="#B43B32" opacity="0.035"/><circle cx="1324.5" cy="860.2442471388738" r="3" fill="#B43B32" opacity="0.035"/><circle cx="1349.7557528611262" cy="885.5" r="3" fill="#B43B32" opacity="0.035"/></g><text x="74" y="120" font-family="Inter" font-size="10" font-weight="700" fill="#71866D" text-anchor="start" letter-spacing="2.4" opacity="1">EVERY LITTLE STEP COUNTS</text><text x="74" y="168" font-family="Inter" font-size="34" font-weight="700" fill="#24362F" text-anchor="start" letter-spacing="0" opacity="1">My progress</text><text x="74" y="204" font-family="Inter" font-size="13" font-weight="400" fill="#7F817A" text-anchor="start" letter-spacing="0" opacity="1">Look at all the connections you’re learning to make.</text><rect x="74" y="220" width="220" height="72" fill="#FFFDF8" rx="12" ry="12" stroke="#E3DED4" stroke-width="1"/><circle cx="100" cy="256" r="12" fill="#EFE8DB"/><text x="126" y="254" font-family="Inter" font-size="18" font-weight="600" fill="#24362F" text-anchor="start" letter-spacing="0" opacity="1">7 days</text><text x="126" y="278" font-family="Inter" font-size="9" font-weight="400" fill="#7F817A" text-anchor="start" letter-spacing="0" opacity="1">Current streak</text><rect x="324" y="220" width="220" height="72" fill="#FFFDF8" rx="12" ry="12" stroke="#E3DED4" stroke-width="1"/><circle cx="350" cy="256" r="12" fill="#EFE8DB"/><text x="376" y="254" font-family="Inter" font-size="18" font-weight="600" fill="#24362F" text-anchor="start" letter-spacing="0" opacity="1">1,250</text><text x="376" y="278" font-family="Inter" font-size="9" font-weight="400" fill="#7F817A" text-anchor="start" letter-spacing="0" opacity="1">Total XP</text><rect x="574" y="220" width="220" height="72" fill="#FFFDF8" rx="12" ry="12" stroke="#E3DED4" stroke-width="1"/><circle cx="600" cy="256" r="12" fill="#EFE8DB"/><text x="626" y="254" font-family="Inter" font-size="18" font-weight="600" fill="#24362F" text-anchor="start" letter-spacing="0" opacity="1">32</text><text x="626" y="278" font-family="Inter" font-size="9" font-weight="400" fill="#7F817A" text-anchor="start" letter-spacing="0" opacity="1">Lessons completed</text><rect x="824" y="220" width="220" height="72" fill="#FFFDF8" rx="12" ry="12" stroke="#E3DED4" stroke-width="1"/><circle cx="850" cy="256" r="12" fill="#EFE8DB"/><text x="876" y="254" font-family="Inter" font-size="18" font-weight="600" fill="#24362F" text-anchor="start" letter-spacing="0" opacity="1">145</text><text x="876" y="278" font-family="Inter" font-size="9" font-weight="400" fill="#7F817A" text-anchor="start" letter-spacing="0" opacity="1">Words learned</text><rect x="1074" y="220" width="220" height="72" fill="#FFFDF8" rx="12" ry="12" stroke="#E3DED4" stroke-width="1"/><circle cx="1100" cy="256" r="12" fill="#EFE8DB"/><text x="1126" y="254" font-family="Inter" font-size="18" font-weight="600" fill="#24362F" text-anchor="start" letter-spacing="0" opacity="1">12h 45m</text><text x="1126" y="278" font-family="Inter" font-size="9" font-weight="400" fill="#7F817A" text-anchor="start" letter-spacing="0" opacity="1">Learning time</text><rect x="74" y="320" width="610" height="330" fill="#FFFDF8" rx="14" ry="14" stroke="#E3DED4" stroke-width="1"/><text x="100" y="354" font-family="Inter" font-size="18" font-weight="600" fill="#24362F" text-anchor="start" letter-spacing="0" opacity="1">Your week in little moments</text><rect x="135" y="501.0" width="24" height="49.0" fill="#DDE5D8" rx="6" ry="6"/><text x="147" y="580" font-family="Inter" font-size="9" font-weight="400" fill="#7F817A" text-anchor="middle" letter-spacing="0" opacity="1">Mon</text><rect x="203" y="482.8" width="24" height="67.2" fill="#DDE5D8" rx="6" ry="6"/><text x="215" y="580" font-family="Inter" font-size="9" font-weight="400" fill="#7F817A" text-anchor="middle" letter-spacing="0" opacity="1">Tue</text><rect x="271" y="515.0" width="24" height="35.0" fill="#DDE5D8" rx="6" ry="6"/><text x="283" y="580" font-family="Inter" font-size="9" font-weight="400" fill="#7F817A" text-anchor="middle" letter-spacing="0" opacity="1">Wed</text><rect x="339" y="463.2" width="24" height="86.8" fill="#DDE5D8" rx="6" ry="6"/><text x="351" y="580" font-family="Inter" font-size="9" font-weight="400" fill="#7F817A" text-anchor="middle" letter-spacing="0" opacity="1">Thu</text><rect x="407" y="499.6" width="24" height="50.4" fill="#DDE5D8" rx="6" ry="6"/><text x="419" y="580" font-family="Inter" font-size="9" font-weight="400" fill="#7F817A" text-anchor="middle" letter-spacing="0" opacity="1">Fri</text><rect x="475" y="471.6" width="24" height="78.4" fill="#DDE5D8" rx="6" ry="6"/><text x="487" y="580" font-family="Inter" font-size="9" font-weight="400" fill="#7F817A" text-anchor="middle" letter-spacing="0" opacity="1">Sat</text><rect x="543" y="482.8" width="24" height="67.2" fill="#DDE5D8" rx="6" ry="6"/><text x="555" y="580" font-family="Inter" font-size="9" font-weight="400" fill="#7F817A" text-anchor="middle" letter-spacing="0" opacity="1">Sun</text><rect x="714" y="320" width="610" height="330" fill="#FFFDF8" rx="14" ry="14" stroke="#E3DED4" stroke-width="1"/><text x="740" y="354" font-family="Inter" font-size="18" font-weight="600" fill="#24362F" text-anchor="start" letter-spacing="0" opacity="1">Finding your voice</text><text x="740" y="405" font-family="Inter" font-size="11" font-weight="400" fill="#7F817A" text-anchor="start" letter-spacing="0" opacity="1">Vocabulary</text><g><rect x="740" y="423" width="500" height="5" fill="#E3DED4" rx="2.5" ry="2.5"/><rect x="740" y="423" width="390.0" height="5" fill="#8FA586" rx="2.5" ry="2.5"/></g><text x="1260" y="410" font-family="Inter" font-size="10" font-weight="600" fill="#7F817A" text-anchor="end" letter-spacing="0" opacity="1">78%</text><text x="740" y="463" font-family="Inter" font-size="11" font-weight="400" fill="#7F817A" text-anchor="start" letter-spacing="0" opacity="1">Listening</text><g><rect x="740" y="481" width="500" height="5" fill="#E3DED4" rx="2.5" ry="2.5"/><rect x="740" y="481" width="305.0" height="5" fill="#8FA586" rx="2.5" ry="2.5"/></g><text x="1260" y="468" font-family="Inter" font-size="10" font-weight="600" fill="#7F817A" text-anchor="end" letter-spacing="0" opacity="1">61%</text><text x="740" y="521" font-family="Inter" font-size="11" font-weight="400" fill="#7F817A" text-anchor="start" letter-spacing="0" opacity="1">Grammar</text><g><rect x="740" y="539" width="500" height="5" fill="#E3DED4" rx="2.5" ry="2.5"/><rect x="740" y="539" width="325.0" height="5" fill="#8FA586" rx="2.5" ry="2.5"/></g><text x="1260" y="526" font-family="Inter" font-size="10" font-weight="600" fill="#7F817A" text-anchor="end" letter-spacing="0" opacity="1">65%</text><text x="740" y="579" font-family="Inter" font-size="11" font-weight="400" fill="#7F817A" text-anchor="start" letter-spacing="0" opacity="1">Speaking</text><g><rect x="740" y="597" width="500" height="5" fill="#E3DED4" rx="2.5" ry="2.5"/><rect x="740" y="597" width="270.0" height="5" fill="#8FA586" rx="2.5" ry="2.5"/></g><text x="1260" y="584" font-family="Inter" font-size="10" font-weight="600" fill="#7F817A" text-anchor="end" letter-spacing="0" opacity="1">54%</text><rect x="74" y="680" width="610" height="300" fill="#FFFDF8" rx="14" ry="14" stroke="#E3DED4" stroke-width="1"/><text x="100" y="714" font-family="Inter" font-size="18" font-weight="600" fill="#24362F" text-anchor="start" letter-spacing="0" opacity="1">One course at a time</text><text x="100" y="770" font-family="Inter" font-size="10" font-weight="400" fill="#7F817A" text-anchor="start" letter-spacing="0" opacity="1">Vietnamese Foundations</text><g><rect x="100" y="788" width="500" height="5" fill="#E3DED4" rx="2.5" ry="2.5"/><rect x="100" y="788" width="500" height="5" fill="#8FA586" rx="2.5" ry="2.5"/></g><text x="620" y="775" font-family="Inter" font-size="10" font-weight="600" fill="#7F817A" text-anchor="end" letter-spacing="0" opacity="1">100%</text><text x="100" y="832" font-family="Inter" font-size="10" font-weight="400" fill="#7F817A" text-anchor="start" letter-spacing="0" opacity="1">Vietnamese for Beginners</text><g><rect x="100" y="850" width="500" height="5" fill="#E3DED4" rx="2.5" ry="2.5"/><rect x="100" y="850" width="340.0" height="5" fill="#8FA586" rx="2.5" ry="2.5"/></g><text x="620" y="837" font-family="Inter" font-size="10" font-weight="600" fill="#7F817A" text-anchor="end" letter-spacing="0" opacity="1">68%</text><text x="100" y="894" font-family="Inter" font-size="10" font-weight="400" fill="#7F817A" text-anchor="start" letter-spacing="0" opacity="1">Daily Vietnamese</text><g><rect x="100" y="912" width="500" height="5" fill="#E3DED4" rx="2.5" ry="2.5"/><rect x="100" y="912" width="160.0" height="5" fill="#8FA586" rx="2.5" ry="2.5"/></g><text x="620" y="899" font-family="Inter" font-size="10" font-weight="600" fill="#7F817A" text-anchor="end" letter-spacing="0" opacity="1">32%</text><rect x="714" y="680" width="610" height="300" fill="#FFFDF8" rx="14" ry="14" stroke="#E3DED4" stroke-width="1"/><text x="740" y="714" font-family="Inter" font-size="18" font-weight="600" fill="#24362F" text-anchor="start" letter-spacing="0" opacity="1">Your recent little wins</text><text x="740" y="770" font-family="Inter" font-size="10" font-weight="400" fill="#7F817A" text-anchor="start" letter-spacing="0" opacity="1">Completed Vietnamese Tones</text><line x1="740" y1="788" x2="1270" y2="788" stroke="#E3DED4" stroke-width="1"/><text x="740" y="818" font-family="Inter" font-size="10" font-weight="400" fill="#7F817A" text-anchor="start" letter-spacing="0" opacity="1">Quiz score: 80%</text><line x1="740" y1="836" x2="1270" y2="836" stroke="#E3DED4" stroke-width="1"/><text x="740" y="866" font-family="Inter" font-size="10" font-weight="400" fill="#7F817A" text-anchor="start" letter-spacing="0" opacity="1">0 words reviewed</text><line x1="740" y1="884" x2="1270" y2="884" stroke="#E3DED4" stroke-width="1"/><text x="740" y="914" font-family="Inter" font-size="10" font-weight="400" fill="#7F817A" text-anchor="start" letter-spacing="0" opacity="1">4 / 10 cities explored</text><line x1="740" y1="932" x2="1270" y2="932" stroke="#E3DED4" stroke-width="1"/>
</svg>