<svg xmlns="http://www.w3.org/2000/svg" width="1440" height="1030" viewBox="0 0 1440 1030">
<rect width="1440" height="1030" fill="#F8F6F1"/>
<rect x="0" y="0" width="1440" height="1030" fill="#F4F5F2"/><rect x="0" y="0" width="250" height="1030" fill="#24362F"/><text x="30" y="55" font-family="Georgia" font-size="25" font-weight="700" fill="#fff" text-anchor="start" letter-spacing="0" opacity="1">hola admin</text><rect x="18" y="86" width="214" height="38" fill="#24362F" rx="8" ry="8"/><text x="40" y="110" font-family="Inter" font-size="12" font-weight="600" fill="#BAC8C1" text-anchor="start" letter-spacing="0" opacity="1">Dashboard</text><rect x="18" y="138" width="214" height="38" fill="#24362F" rx="8" ry="8"/><text x="40" y="162" font-family="Inter" font-size="12" font-weight="600" fill="#BAC8C1" text-anchor="start" letter-spacing="0" opacity="1">Users</text><rect x="18" y="190" width="214" height="38" fill="#24362F" rx="8" ry="8"/><text x="40" y="214" font-family="Inter" font-size="12" font-weight="600" fill="#BAC8C1" text-anchor="start" letter-spacing="0" opacity="1">Courses</text><rect x="18" y="242" width="214" height="38" fill="#30483F" rx="8" ry="8"/><text x="40" y="266" font-family="Inter" font-size="12" font-weight="600" fill="#fff" text-anchor="start" letter-spacing="0" opacity="1">Lessons</text><rect x="18" y="294" width="214" height="38" fill="#24362F" rx="8" ry="8"/><text x="40" y="318" font-family="Inter" font-size="12" font-weight="600" fill="#BAC8C1" text-anchor="start" letter-spacing="0" opacity="1">Vocabulary</text><rect x="18" y="346" width="214" height="38" fill="#24362F" rx="8" ry="8"/><text x="40" y="370" font-family="Inter" font-size="12" font-weight="600" fill="#BAC8C1" text-anchor="start" letter-spacing="0" opacity="1">Grammar</text><rect x="18" y="398" width="214" height="38" fill="#24362F" rx="8" ry="8"/><text x="40" y="422" font-family="Inter" font-size="12" font-weight="600" fill="#BAC8C1" text-anchor="start" letter-spacing="0" opacity="1">Quiz</text><rect x="18" y="450" width="214" height="38" fill="#24362F" rx="8" ry="8"/><text x="40" y="474" font-family="Inter" font-size="12" font-weight="600" fill="#BAC8C1" text-anchor="start" letter-spacing="0" opacity="1">Journey</text><rect x="18" y="502" width="214" height="38" fill="#24362F" rx="8" ry="8"/><text x="40" y="526" font-family="Inter" font-size="12" font-weight="600" fill="#BAC8C1" text-anchor="start" letter-spacing="0" opacity="1">Culture</text><rect x="18" y="554" width="214" height="38" fill="#24362F" rx="8" ry="8"/><text x="40" y="578" font-family="Inter" font-size="12" font-weight="600" fill="#BAC8C1" text-anchor="start" letter-spacing="0" opacity="1">Blog</text><rect x="18" y="606" width="214" height="38" fill="#24362F" rx="8" ry="8"/><text x="40" y="630" font-family="Inter" font-size="12" font-weight="600" fill="#BAC8C1" text-anchor="start" letter-spacing="0" opacity="1">AI Scenarios</text><rect x="18" y="658" width="214" height="38" fill="#24362F" rx="8" ry="8"/><text x="40" y="682" font-family="Inter" font-size="12" font-weight="600" fill="#BAC8C1" text-anchor="start" letter-spacing="0" opacity="1">Import</text><text x="290" y="70" font-family="Inter" font-size="28" font-weight="700" fill="#24362F" text-anchor="start" letter-spacing="0" opacity="1">Lesson Builder</text><text x="290" y="100" font-family="Inter" font-size="12" font-weight="400" fill="#7F817A" text-anchor="start" letter-spacing="0" opacity="1">Ordering Food · Daily Communication</text><g><rect x="1180" y="52" width="170" height="44" fill="#FFFDF8" rx="9" ry="9" stroke="#E3DED4" stroke-width="1"/><text x="1265.0" y="80" font-family="Inter" font-size="12" font-weight="600" fill="#24362F" text-anchor="middle" letter-spacing="0" opacity="1">Preview Lesson</text></g><rect x="290" y="145" width="250" height="790" fill="#FFFDF8" rx="12" ry="12" stroke="#E3DED4" stroke-width="1"/><text x="315" y="180" font-family="Inter" font-size="17" font-weight="600" fill="#24362F" text-anchor="start" letter-spacing="0" opacity="1">Lesson info</text><text x="315" y="220" font-family="Inter" font-size="13" font-weight="600" fill="#24362F" text-anchor="start" letter-spacing="0" opacity="1">Ordering Food</text><text x="315" y="248" font-family="Inter" font-size="10" font-weight="400" fill="#7F817A" text-anchor="start" letter-spacing="0" opacity="1">NORMAL · Published</text><text x="575" y="180" font-family="Inter" font-size="17" font-weight="600" fill="#24362F" text-anchor="start" letter-spacing="0" opacity="1">Activities</text><g><rect x="1040" y="160" width="140" height="44" fill="#B43B32" rx="9" ry="9"/><text x="1110.0" y="188" font-family="Inter" font-size="12" font-weight="600" fill="#fff" text-anchor="middle" letter-spacing="0" opacity="1">＋ Add Activity</text></g><rect x="575" y="220" width="420" height="52" fill="#FFFDF8" rx="8" ry="8" stroke="#E3DED4" stroke-width="1"/><circle cx="600" cy="246" r="12" fill="#EDF2E8"/><text x="600" y="250" font-family="Inter" font-size="9" font-weight="700" fill="#71866D" text-anchor="middle" letter-spacing="0" opacity="1">1</text><text x="630" y="251" font-family="Inter" font-size="12" font-weight="500" fill="#24362F" text-anchor="start" letter-spacing="0" opacity="1">Introduction</text><text x="940" y="251" font-family="Inter" font-size="10" font-weight="500" fill="#7F817A" text-anchor="start" letter-spacing="0" opacity="1">↑  ↓  ⋮</text><rect x="575" y="282" width="420" height="52" fill="#FFFDF8" rx="8" ry="8" stroke="#B43B32" stroke-width="1"/><circle cx="600" cy="308" r="12" fill="#F5E6E1"/><text x="600" y="312" font-family="Inter" font-size="9" font-weight="700" fill="#B43B32" text-anchor="middle" letter-spacing="0" opacity="1">2</text><text x="630" y="313" font-family="Inter" font-size="12" font-weight="500" fill="#24362F" text-anchor="start" letter-spacing="0" opacity="1">Vocabulary</text><text x="940" y="313" font-family="Inter" font-size="10" font-weight="500" fill="#7F817A" text-anchor="start" letter-spacing="0" opacity="1">↑  ↓  ⋮</text><rect x="575" y="344" width="420" height="52" fill="#FFFDF8" rx="8" ry="8" stroke="#E3DED4" stroke-width="1"/><circle cx="600" cy="370" r="12" fill="#EDF2E8"/><text x="600" y="374" font-family="Inter" font-size="9" font-weight="700" fill="#71866D" text-anchor="middle" letter-spacing="0" opacity="1">3</text><text x="630" y="375" font-family="Inter" font-size="12" font-weight="500" fill="#24362F" text-anchor="start" letter-spacing="0" opacity="1">Listening</text><text x="940" y="375" font-family="Inter" font-size="10" font-weight="500" fill="#7F817A" text-anchor="start" letter-spacing="0" opacity="1">↑  ↓  ⋮</text><rect x="575" y="406" width="420" height="52" fill="#FFFDF8" rx="8" ry="8" stroke="#E3DED4" stroke-width="1"/><circle cx="600" cy="432" r="12" fill="#EDF2E8"/><text x="600" y="436" font-family="Inter" font-size="9" font-weight="700" fill="#71866D" text-anchor="middle" letter-spacing="0" opacity="1">4</text><text x="630" y="437" font-family="Inter" font-size="12" font-weight="500" fill="#24362F" text-anchor="start" letter-spacing="0" opacity="1">Dialogue</text><text x="940" y="437" font-family="Inter" font-size="10" font-weight="500" fill="#7F817A" text-anchor="start" letter-spacing="0" opacity="1">↑  ↓  ⋮</text><rect x="575" y="468" width="420" height="52" fill="#FFFDF8" rx="8" ry="8" stroke="#E3DED4" stroke-width="1"/><circle cx="600" cy="494" r="12" fill="#EDF2E8"/><text x="600" y="498" font-family="Inter" font-size="9" font-weight="700" fill="#71866D" text-anchor="middle" letter-spacing="0" opacity="1">5</text><text x="630" y="499" font-family="Inter" font-size="12" font-weight="500" fill="#24362F" text-anchor="start" letter-spacing="0" opacity="1">Grammar</text><text x="940" y="499" font-family="Inter" font-size="10" font-weight="500" fill="#7F817A" text-anchor="start" letter-spacing="0" opacity="1">↑  ↓  ⋮</text><rect x="575" y="530" width="420" height="52" fill="#FFFDF8" rx="8" ry="8" stroke="#E3DED4" stroke-width="1"/><circle cx="600" cy="556" r="12" fill="#EDF2E8"/><text x="600" y="560" font-family="Inter" font-size="9" font-weight="700" fill="#71866D" text-anchor="middle" letter-spacing="0" opacity="1">6</text><text x="630" y="561" font-family="Inter" font-size="12" font-weight="500" fill="#24362F" text-anchor="start" letter-spacing="0" opacity="1">Practice</text><text x="940" y="561" font-family="Inter" font-size="10" font-weight="500" fill="#7F817A" text-anchor="start" letter-spacing="0" opacity="1">↑  ↓  ⋮</text><rect x="575" y="592" width="420" height="52" fill="#FFFDF8" rx="8" ry="8" stroke="#E3DED4" stroke-width="1"/><circle cx="600" cy="618" r="12" fill="#EDF2E8"/><text x="600" y="622" font-family="Inter" font-size="9" font-weight="700" fill="#71866D" text-anchor="middle" letter-spacing="0" opacity="1">7</text><text x="630" y="623" font-family="Inter" font-size="12" font-weight="500" fill="#24362F" text-anchor="start" letter-spacing="0" opacity="1">Quiz</text><text x="940" y="623" font-family="Inter" font-size="10" font-weight="500" fill="#7F817A" text-anchor="start" letter-spacing="0" opacity="1">↑  ↓  ⋮</text><rect x="1020" y="220" width="360" height="600" fill="#FFFDF8" rx="12" ry="12" stroke="#E3DED4" stroke-width="1"/><text x="1045" y="255" font-family="Inter" font-size="17" font-weight="600" fill="#24362F" text-anchor="start" letter-spacing="0" opacity="1">Vocabulary Activity</text><text x="1045" y="300" font-family="Inter" font-size="10" font-weight="500" fill="#7F817A" text-anchor="start" letter-spacing="0" opacity="1">Title</text><rect x="1045" y="316" width="310" height="42" fill="#FFFDF8" rx="8" ry="8" stroke="#E3DED4" stroke-width="1"/><text x="1058" y="342" font-family="Inter" font-size="11" font-weight="400" fill="#24362F" text-anchor="start" letter-spacing="0" opacity="1">Words you’ll take with you</text><text x="1045" y="390" font-family="Inter" font-size="10" font-weight="500" fill="#7F817A" text-anchor="start" letter-spacing="0" opacity="1">Vocabulary IDs</text><rect x="1045" y="407" width="310" height="110" fill="#F8F6F1" rx="8" ry="8" stroke="#E3DED4" stroke-width="1"/><text x="1060" y="435" font-family="Inter" font-size="11" font-weight="500" fill="#24362F" text-anchor="start" letter-spacing="0" opacity="1">chén   phở   cơm</text><text x="1060" y="465" font-family="Inter" font-size="11" font-weight="500" fill="#24362F" text-anchor="start" letter-spacing="0" opacity="1">nước   tô   món ăn</text><text x="1045" y="555" font-family="Inter" font-size="10" font-weight="500" fill="#7F817A" text-anchor="start" letter-spacing="0" opacity="1">Integration</text><text x="1045" y="580" font-family="Inter" font-size="10" font-weight="400" fill="#7F817A" text-anchor="start" letter-spacing="0" opacity="1">Uses Member 3 vocabulary API.</text><g><rect x="1045" y="748" width="310" height="44" fill="#B43B32" rx="9" ry="9"/><text x="1200.0" y="776" font-family="Inter" font-size="12" font-weight="600" fill="#fff" text-anchor="middle" letter-spacing="0" opacity="1">Save Activity</text></g>
</svg>